<?xml version="1.0" encoding="UTF-8"?>
<svg class="size-[calc(var(--size-selector,.25rem)*6)]" fill="currentColor" stroke="none" version="1.1" viewBox="0 0 24 24" xmlns="http://www.w3.org/2000/svg">
 <path d="m7 3c-2.216 0-4 1.784-4 4v10c0 2.216 1.784 4 4 4h10c2.216 0 4-1.784 4-4v-10c0-2.216-1.784-4-4-4h-10zm5 3.25a1.25 1.25 0 0 1 1.25 1.25v3.25h3.25a1.25 1.25 0 0 1 1.25 1.25 1.25 1.25 0 0 1-1.25 1.25h-3.25v3.25a1.25 1.25 0 0 1-1.25 1.25 1.25 1.25 0 0 1-1.25-1.25v-3.25h-3.25a1.25 1.25 0 0 1-1.25-1.25 1.25 1.25 0 0 1 1.25-1.25h3.25v-3.25a1.25 1.25 0 0 1 1.25-1.25z"/>
</svg>
