<?xml version="1.0" encoding="UTF-8"?>
<svg class="size-[calc(var(--size-selector,.25rem)*6)]" fill="none" stroke="currentColor" stroke-width="2.5" version="1.1" viewBox="0 0 24 24" xmlns="http://www.w3.org/2000/svg">
 <g stroke-linecap="round" stroke-linejoin="round" stroke-width="2">
  <path d="m3 3v18"/>
  <path d="m3 21h18"/>
  <path d="m5.7062 17.922c0.91761-0.58419 1.6175-1.5022 1.9378-2.5418 0.19033-0.61778 0.25078-1.2735 0.48572-1.8757 0.20521-0.52603 0.54649-1.0037 1.0011-1.3386 0.45462-0.33487 1.0244-0.5207 1.5877-0.4813 0.63879 0.04469 1.248 0.38385 1.6351 0.89388 0.27153 0.35767 0.43343 0.78445 0.64994 1.1779 0.10825 0.19671 0.23142 0.38678 0.38509 0.55049 0.15367 0.16371 0.33933 0.30079 0.55022 0.37788 0.28646 0.10472 0.60703 0.09329 0.89946 0.0066 0.29244-0.08665 0.55931-0.24481 0.80345-0.42763 0.64875-0.48582 1.1493-1.1483 1.5352-1.861 0.38584-0.71276 0.66306-1.4784 0.92696-2.2447 0.52565-1.5264 1.0044-3.0689 1.4354-4.6247"/>
 </g>
</svg>
