<?xml version="1.0" encoding="UTF-8"?>
<svg class="size-[calc(var(--size-selector,.25rem)*6)]" stroke-width="2.5" version="1.1" viewBox="0 0 24 24" xmlns="http://www.w3.org/2000/svg">
 <g transform="rotate(-45 13.288 12.378)">
  <g transform="translate(-.13809 .36362)" fill="none" stroke="currentColor" stroke-linejoin="round" stroke-width="1.5">
   <rect x="10.783" y="2.6648" width="4" height="22" rx="1"/>
   <path transform="rotate(-45 11.251 -1.5382)" d="m4.6349 4.3315 2.929 2.929"/>
  </g>
  <g fill="currentColor" stroke="none">
   <path transform="translate(-.061215 2.0358)" d="m13.482-1.2874c-0.31188 0.025726-0.37294-0.9125-0.63987-1.0758-0.26803-0.16401-1.1328 0.20673-1.2542-0.083124-0.12084-0.28866 0.75259-0.63667 0.82544-0.941 0.07315-0.3056-0.54668-1.0135-0.3085-1.2185 0.23719-0.20413 0.83807 0.51902 1.15 0.49426 0.31325-0.024861 0.79496-0.83311 1.0635-0.66993 0.26743 0.1625-0.23464 0.95744-0.11469 1.2465 0.12044 0.29023 1.038 0.49861 0.96579 0.80443-0.07191 0.30456-0.98308 0.072712-1.2209 0.2761-0.23881 0.20423-0.15345 1.1413-0.46662 1.1671z"/>
   <path transform="translate(5.3181 10.399)" d="m13.482-1.2874c-0.31188 0.025726-0.37294-0.9125-0.63987-1.0758-0.26803-0.16401-1.1328 0.20673-1.2542-0.083124-0.12084-0.28866 0.75259-0.63667 0.82544-0.941 0.07315-0.3056-0.54668-1.0135-0.3085-1.2185 0.23719-0.20413 0.83807 0.51902 1.15 0.49426 0.31325-0.024861 0.79496-0.83311 1.0635-0.66993 0.26743 0.1625-0.23464 0.95744-0.11469 1.2465 0.12044 0.29023 1.038 0.49861 0.96579 0.80443-0.07191 0.30456-0.98308 0.072712-1.2209 0.2761-0.23881 0.20423-0.15345 1.1413-0.46662 1.1671z"/>
   <path transform="translate(-6.9904 8.9649)" d="m13.482-1.2874c-0.31188 0.025726-0.37294-0.9125-0.63987-1.0758-0.26803-0.16401-1.1328 0.20673-1.2542-0.083124-0.12084-0.28866 0.75259-0.63667 0.82544-0.941 0.07315-0.3056-0.54668-1.0135-0.3085-1.2185 0.23719-0.20413 0.83807 0.51902 1.15 0.49426 0.31325-0.024861 0.79496-0.83311 1.0635-0.66993 0.26743 0.1625-0.23464 0.95744-0.11469 1.2465 0.12044 0.29023 1.038 0.49861 0.96579 0.80443-0.07191 0.30456-0.98308 0.072712-1.2209 0.2761-0.23881 0.20423-0.15345 1.1413-0.46662 1.1671z"/>
  </g>
 </g>
</svg>
