<?xml version="1.0" encoding="UTF-8" standalone="no"?>
<svg
   class="size-[calc(var(--size-selector,.25rem)*6)]"
   fill="currentColor"
   stroke="none"
   version="1.1"
   viewBox="0 0 24 24"
   id="svg1"
   sodipodi:docname="remove.svg"
   inkscape:version="1.4 (e7c3feb100, 2024-10-09)"
   xmlns:inkscape="http://www.inkscape.org/namespaces/inkscape"
   xmlns:sodipodi="http://sodipodi.sourceforge.net/DTD/sodipodi-0.dtd"
   xmlns="http://www.w3.org/2000/svg"
   xmlns:svg="http://www.w3.org/2000/svg">
  <defs
     id="defs1" />
  <sodipodi:namedview
     id="namedview1"
     pagecolor="#ffffff"
     bordercolor="#000000"
     borderopacity="0.25"
     inkscape:showpageshadow="2"
     inkscape:pageopacity="0.0"
     inkscape:pagecheckerboard="0"
     inkscape:deskcolor="#d1d1d1"
     inkscape:zoom="33.458333"
     inkscape:cx="12.014944"
     inkscape:cy="12"
     inkscape:window-width="1854"
     inkscape:window-height="1011"
     inkscape:window-x="1986"
     inkscape:window-y="32"
     inkscape:window-maximized="1"
     inkscape:current-layer="svg1" />
  <path
     d="M 7,3 C 4.784,3 3,4.784 3,7 v 10 c 0,2.216 1.784,4 4,4 h 10 c 2.216,0 4,-1.784 4,-4 V 7 C 21,4.784 19.216,3 17,3 Z m 9.5,7.75 c 0.690356,0 1.25,0.559644 1.25,1.25 0,0.690356 -0.559644,1.25 -1.25,1.25 H 12 c -7.0466377,0 -4.5,0 -4.5,0 -0.6903559,0 -1.25,-0.559644 -1.25,-1.25 0,-0.690356 0.5596441,-1.25 1.25,-1.25 H 12 c 4.699296,0 4.5,0 4.5,0 z"
     id="path1"
     sodipodi:nodetypes="ssssssssssssssssss" />
</svg>
